<svg enable-background="new 0 0 367.091 87.05" height="87.05" viewBox="0 0 367.091 87.05" width="367.091" xmlns="http://www.w3.org/2000/svg" xmlns:xlink="http://www.w3.org/1999/xlink"><clipPath id="a"><path d="m16.503 27.797h-2.594c-1.942 0-3.406 1.369-3.406 3.184 0 .65.2 1.314.584 1.924 0 .003.747 1.195 1.128 1.804-2.098 3.734-12.215 22.273-12.215 32.707 0 1.873.326 3.481 1.084 4.699 4.186 6.721 28.003 9.229 40.592 9.65.516.828 2.241 3.584 2.241 3.584.638 1.031 1.781 1.7 2.919 1.7 1.146.003 2.266-.646 2.922-1.69 0 0 1.996-3.17 2.318-3.686 5.528-.273 33.647-2.04 38.327-9.559.741-1.189 1.058-2.773 1.058-4.617 0-9.748-8.88-26.742-11.081-30.804.186-.302.376-.602.376-.602.38-.615.569-1.291.569-1.944 0-.535-.131-1.056-.395-1.513l-1.842-3.188c-.571-1.004-1.751-1.65-3.01-1.65h-1.089c-6.707-9.927-20.942-27.796-29.243-27.796-8.306 0-22.538 17.869-29.243 27.797"/></clipPath><clipPath id="b"><path d="m20.687 32.828c-6.3 10.906-14.292 30.232-11.281 35.448 3.014 5.214 23.743 7.952 36.34 7.952 12.593 0 33.325-2.738 36.337-7.952 3.012-5.216-4.983-24.542-11.281-35.448-6.297-10.908-19.033-27.492-25.056-27.492-6.025 0-18.761 16.584-25.059 27.492"/></clipPath><radialGradient id="c" cx="-25.2451" cy="110.0898" gradientTransform="matrix(58.767 0 0 -58.767 1525.2167 6491.1938)" gradientUnits="userSpaceOnUse" r="1"><stop offset="0" stop-color="#c8d400"/><stop offset=".1165" stop-color="#bfd000"/><stop offset=".3065" stop-color="#a7c514"/><stop offset=".5465" stop-color="#7cb429"/><stop offset=".8242" stop-color="#249e38"/><stop offset="1" stop-color="#00913e"/></radialGradient><clipPath id="d"><path d="m33.667 14.588c-.69.795-1.382 1.621-2.07 2.469h28.296c-.688-.848-1.38-1.674-2.07-2.469z"/></clipPath><linearGradient id="e"><stop offset="0" stop-color="#fff"/><stop offset=".1078" stop-color="#fefefb"/><stop offset=".2515" stop-color="#fbfbef"/><stop offset=".4154" stop-color="#f5f6db"/><stop offset=".5944" stop-color="#edf0bc"/><stop offset=".7855" stop-color="#e4e791"/><stop offset=".9841" stop-color="#d7dd53"/><stop offset="1" stop-color="#d6dc4d"/></linearGradient><radialGradient id="f" cx="-25.2466" cy="110.0889" gradientTransform="matrix(38.3277 0 0 -38.3277 1009.1129 4234.6138)" gradientUnits="userSpaceOnUse" r="1" xlink:href="#e"/><clipPath id="g"><path d="m25.851 24.734c-.574.829-1.133 1.655-1.672 2.471h43.132c-.54-.816-1.098-1.642-1.672-2.471z"/></clipPath><radialGradient id="h" cx="-25.25" cy="110.085" gradientTransform="matrix(38.3273 0 0 -38.3273 1009.259 4244.5698)" gradientUnits="userSpaceOnUse" r="1.0007" xlink:href="#e"/><clipPath id="i"><path d="m19.534 34.883c-.432.793-.869 1.618-1.306 2.467h55.032c-.437-.849-.874-1.674-1.306-2.467z"/></clipPath><radialGradient id="j" cx="-25.2524" cy="110.082" gradientTransform="matrix(38.3272 0 0 -38.3272 1009.3503 4254.6216)" gradientUnits="userSpaceOnUse" r="1" xlink:href="#e"/><clipPath id="k"><path d="m14.587 45.028c-.358.82-.708 1.646-1.048 2.472h64.41c-.34-.826-.69-1.651-1.048-2.472z"/></clipPath><radialGradient id="l" cx="-25.2588" cy="110.0752" gradientTransform="matrix(38.3274 0 0 -38.3274 1009.6367 4264.4873)" gradientUnits="userSpaceOnUse" r=".9995" xlink:href="#e"/><clipPath id="m"><path d="m10.721 55.176c-.266.842-.511 1.667-.73 2.469h71.507c-.219-.802-.464-1.627-.731-2.469z"/></clipPath><radialGradient id="n" cx="-25.2412" cy="110.0947" gradientTransform="matrix(38.3272 0 0 -38.3272 1008.8816 4275.3716)" gradientUnits="userSpaceOnUse" r="1.0005" xlink:href="#e"/><clipPath id="o"><path d="m8.754 65.323c.02.968.154 1.801.42 2.468h73.142c.265-.667.399-1.5.42-2.468z"/></clipPath><radialGradient id="p" cx="-25.2407" cy="110.0957" gradientTransform="matrix(38.3272 0 0 -38.3272 1008.8816 4285.5278)" gradientUnits="userSpaceOnUse" r="1.0005" xlink:href="#e"/><clipPath id="q"><path d="m16.503 27.797h-2.594c-1.942 0-3.406 1.369-3.406 3.184 0 .65.2 1.314.584 1.924 0 .003.747 1.195 1.128 1.804-2.098 3.734-12.215 22.273-12.215 32.707 0 1.873.326 3.481 1.084 4.699 4.186 6.721 28.003 9.229 40.592 9.65.516.828 2.241 3.584 2.241 3.584.638 1.031 1.781 1.7 2.919 1.7 1.146.003 2.266-.646 2.922-1.69 0 0 1.996-3.17 2.318-3.686 5.528-.273 33.647-2.04 38.327-9.559.741-1.189 1.058-2.773 1.058-4.617 0-9.748-8.88-26.742-11.081-30.804.186-.302.376-.602.376-.602.38-.615.569-1.291.569-1.944 0-.535-.131-1.056-.395-1.513l-1.842-3.188c-.571-1.004-1.751-1.65-3.01-1.65h-1.089c-6.707-9.927-20.942-27.796-29.243-27.796-8.306 0-22.538 17.869-29.243 27.797"/></clipPath><clipPath id="r"><path d="m-25.249-27.914h141v138h-141z"/></clipPath><clipPath id="s"><path d="m-25.249-27.914h141v138h-141z"/></clipPath><g fill="#fff"><path d="m315.062 32.137c0-10.215-8.369-18.525-18.654-18.525h-26.697c-2.62 0-4.756 2.277-4.756 5.074v54.943h14.007v-22.965h10.157c1.175 2.381 11.331 22.975 11.331 22.975h9.124c2.196-.004 3.982-1.793 3.982-3.992l-.393-1.729s-6.459-13.334-9.144-18.89c6.619-2.938 11.043-9.523 11.043-16.891m-36.1-4.533h17.446c2.515 0 4.561 2.033 4.561 4.533 0 2.498-2.046 4.531-4.561 4.531h-17.446z"/><path d="m187.463 13.621-26.679-.005c-2.624 0-4.76 2.279-4.76 5.083v54.94h9.281c2.606 0 4.727-2.277 4.727-5.074v-17.897h17.422c10.236 0 18.562-8.309 18.562-18.519 0-10.217-8.322-18.528-18.553-18.528m.015 23.057h-17.445v-9.066h17.445c2.514 0 4.562 2.035 4.562 4.537-.001 2.496-2.049 4.529-4.562 4.529"/><path d="m139.247 39.551c-.002-.002-17.02-5.162-17.02-5.162l-4.699-1.422c-2.494-.75-2.687-2.336-2.687-2.805 0-.636 0-2.578 6.268-2.578h27.376v-9.467c0-2.097-1.606-3.822-3.655-3.931l-.136-.008c-3.279-.176-10.959-.594-19.579-.602h-4.006c-12.126 0-20.274 6.664-20.274 16.586 0 7.756 4.654 13.795 12.448 16.16.003 0 8.258 2.487 8.258 2.487l13.395 4.068c1.727.527 2.602 1.744 2.602 3.609 0 2.318-3.512 3.139-6.521 3.139h-23.332c-2.199 0-4.025 1.797-4.071 4.006v5.953c.046 2.297 1.834 4.055 4.071 4.055h23.332c12.476 0 20.534-6.736 20.534-17.152 0-8.251-4.599-14.584-12.304-16.936"/><path d="m240.063 13.67h-12.886c-10.229 0-18.552 8.312-18.552 18.525v22.916c0 10.215 8.322 18.527 18.552 18.527h12.886c10.229 0 18.554-8.312 18.554-18.527v-22.916c0-10.213-8.325-18.525-18.554-18.525m-17.459 18.525c0-2.5 2.047-4.537 4.562-4.537h12.91c2.517 0 4.562 2.037 4.562 4.537v22.916c0 2.5-2.046 4.539-4.562 4.539h-12.91c-2.516 0-4.562-2.039-4.562-4.539z"/><path d="m363.023 13.602h-41.793c-2.226 0-4.049 1.809-4.067 4.031v9.951h17.96v46.055h9.28c2.605 0 4.728-2.277 4.728-5.074v-40.982h17.96v-9.927c-.029-2.249-1.854-4.054-4.068-4.054"/><path clip-path="url(#a)" d="m16.502 27.797h-2.594c-1.941 0-3.406 1.369-3.406 3.184 0 .65.201 1.314.584 1.923 0 .004.747 1.196 1.129 1.805-2.097 3.734-12.215 22.273-12.215 32.707 0 1.873.326 3.482 1.084 4.699 4.186 6.721 28.002 9.23 40.592 9.65.515.828 2.24 3.584 2.24 3.584.639 1.031 1.781 1.701 2.919 1.701 1.146.002 2.267-.646 2.923-1.691 0 0 1.996-3.17 2.318-3.686 5.528-.273 33.647-2.039 38.326-9.559.741-1.189 1.059-2.773 1.059-4.617 0-9.748-8.881-26.742-11.082-30.805.186-.3.376-.601.376-.601.38-.615.569-1.291.569-1.943 0-.536-.131-1.057-.394-1.514l-1.842-3.188c-.572-1.004-1.752-1.65-3.01-1.65h-1.09c-6.707-9.927-20.941-27.796-29.242-27.796-8.306 0-22.538 17.869-29.244 27.797"/></g><path clip-path="url(#b)" d="m6.395 5.336h78.7v70.893h-78.7z" fill="url(#c)"/><path clip-path="url(#d)" d="m31.597 14.588h28.296v2.469h-28.296z" fill="url(#f)"/><path clip-path="url(#g)" d="m24.179 24.734h43.132v2.471h-43.132z" fill="url(#h)"/><path clip-path="url(#i)" d="m18.228 34.883h55.032v2.467h-55.032z" fill="url(#j)"/><path clip-path="url(#k)" d="m13.539 45.028h64.41v2.472h-64.41z" fill="url(#l)"/><path clip-path="url(#m)" d="m9.991 55.176h71.507v2.469h-71.507z" fill="url(#n)"/><path clip-path="url(#o)" d="m8.754 65.323h73.982v2.468h-73.982z" fill="url(#p)"/><g clip-path="url(#q)"><g clip-path="url(#r)"><g clip-path="url(#s)"><image height="138" overflow="visible" transform="translate(-25.249 -27.9141)" width="141" xlink:href="EF62930E5C6313B7.png"/></g></g></g><path clip-path="url(#q)" clip-rule="evenodd" d="m15.403 31.714c-6.632 10.653-17.336 33.253-13.287 39.759 4.028 6.467 30.404 9.15 43.63 9.15 13.224 0 39.601-2.684 43.626-9.15 4.05-6.504-6.656-29.105-13.285-39.758-6.621-10.636-22.314-30.499-30.341-30.499-8.029 0-23.725 19.863-30.343 30.498m-11.627 38.725c-3.152-5.062 5.614-25.367 13.286-37.694 7.687-12.349 22.318-29.576 28.684-29.576 6.364 0 20.995 17.227 28.682 29.575 7.67 12.328 16.436 32.632 13.285 37.695-3.175 5.098-26.584 8.23-41.967 8.23-15.386.001-38.796-3.132-41.97-8.23" fill="#74af27" fill-rule="evenodd"/><path clip-path="url(#q)" d="m46.932 47.602c-.812 0-1.121.561-.69 1.246l3.003 4.773c.431.686.431 1.811 0 2.498l-3.461 5.503c-.436.688-1.142.688-1.574 0l-12.479-19.834c-.434-.688-.121-1.247.689-1.247h37.229c.811 0 1.828-.564 2.26-1.248l4.863-7.73c.43-.686.119-1.248-.692-1.248h-62.171c-.81 0-1.122.562-.688 1.248l30.989 49.255c.432.689 1.138.689 1.574 0l20.111-31.971c.433-.686.121-1.246-.688-1.246h-18.275z" fill="#d60822"/><path clip-path="url(#q)" d="m46.932 47.602c-.812 0-1.121.561-.69 1.246l3.003 4.773c.431.686.431 1.811 0 2.498l-3.461 5.503c-.436.688-1.142.688-1.574 0l-12.479-19.834c-.434-.688-.121-1.247.689-1.247h37.229c.811 0 1.828-.564 2.26-1.248l4.863-7.73c.43-.686.119-1.248-.692-1.248h-62.171c-.81 0-1.122.562-.688 1.248l30.989 49.255c.432.689 1.138.689 1.574 0l20.111-31.971c.433-.686.121-1.246-.688-1.246h-18.275z" fill="none" stroke="#d60822" stroke-width=".817"/><path clip-path="url(#q)" d="m71.493 44.635c1.071 0 2.454-.766 3.023-1.668l1.174-1.866 3.685-5.861c.373-.605.432-1.309.152-1.795l-1.845-3.193c-.289-.508-.92-.836-1.604-.836h-62.17c-1.034 0-1.785.656-1.785 1.564 0 .346.116.715.336 1.065l3.872 6.183c8.572 13.692 28.65 45.762 28.962 46.268.345.557.966.934 1.546.935.591 0 1.186-.356 1.548-.935l20.113-31.975c.382-.605.442-1.293.155-1.793l-1.846-3.189c-.311-.533-.897-.84-1.604-.84h-18.275c-1.035 0-1.785.654-1.785 1.557 0 .232.06.609.338 1.076l2.987 4.998c.198.334.26.914.011 1.307l-3.485 5.544-10.41-16.546zm-26.942 16.775c.131.205.294.324.444.324.153 0 .316-.119.446-.324l3.463-5.508c.35-.561.35-1.508 0-2.066 0 0-3.002-4.773-3.003-4.775-.287-.455-.335-.926-.133-1.289.201-.367.625-.574 1.162-.574h18.275c.537 0 .961.207 1.165.574.201.363.152.834-.135 1.291 0 0-20.112 31.975-20.112 31.977-.283.447-.695.701-1.13.699-.432 0-.844-.258-1.123-.701l-30.991-49.259c-.286-.455-.337-.926-.135-1.289.203-.367.627-.576 1.164-.576h62.17c.539 0 .964.209 1.165.574.203.365.156.834-.13 1.291l-4.861 7.727c-.51.808-1.654 1.437-2.603 1.437h-37.229c-.23 0-.406.061-.459.156-.054.102-.012.28.111.471z" fill="#fff"/><path clip-path="url(#q)" d="m69.004 50.531c.37.643.288 1.488-.162 2.205-.486.775-19.685 31.297-20.115 31.979-.427.676-1.139 1.119-1.89 1.116-.749-.001-1.489-.478-1.885-1.12-.397-.646-32.583-52.047-32.833-52.454-.242-.385-.4-.83-.4-1.277 0-1.176.977-1.971 2.19-1.971h62.171c.845 0 1.601.426 1.952 1.041.351.614 1.496 2.59 1.845 3.194.35.607.301 1.462-.158 2.209-.458.744-4.203 6.681-4.861 7.728-.657 1.045-2.17 1.855-3.364 1.855h-36.177l9.679 15.387s2.996-4.76 3.145-4.998c.149-.24.119-.66-.018-.889-.087-.146-2.678-4.482-2.985-4.996-.308-.514-.395-.955-.395-1.285 0-1.154.949-1.959 2.189-1.959h18.275c.883 0 1.587.412 1.95 1.037.365.632 1.476 2.552 1.847 3.198m-22.072-2.929c-.812 0-1.121.561-.69 1.246l3.003 4.773c.431.686.431 1.811 0 2.498l-3.461 5.503c-.436.688-1.142.688-1.574 0l-12.479-19.834c-.434-.688-.121-1.247.689-1.247h37.229c.811 0 1.828-.564 2.26-1.248l4.863-7.73c.43-.686.119-1.248-.692-1.248h-62.171c-.81 0-1.122.562-.688 1.248l30.989 49.255c.432.689 1.138.689 1.574 0l20.111-31.971c.433-.686.121-1.246-.688-1.246h-18.275z" fill="#12100b"/></svg>
